<?xml version="1.0" encoding="UTF-8" standalone="no"?>
<svg width="186px" height="21px" viewBox="0 0 186 21" version="1.1" xmlns="http://www.w3.org/2000/svg" xmlns:xlink="http://www.w3.org/1999/xlink">
    <!-- Generator: Sketch 40.1 (33804) - http://www.bohemiancoding.com/sketch -->
    <title>CRYSTAL BOX</title>
    <desc>Created with Sketch.</desc>
    <defs></defs>
    <g stroke="none" stroke-width="1" fill="none" fill-rule="evenodd" fill-opacity="0.85">
        <g transform="translate(-43.000000, -22.000000)" fill="#000000">
            <g transform="translate(26.000000, 23.000000)">
                <g>
                    <path d="M28.8882526,1.01796875 C29.6203527,1.31419419 30.3333989,1.72890358 31.0274128,2.26210937 C31.2136116,2.41445389 31.3828808,2.490625 31.5352253,2.490625 C31.8906958,2.490625 32.1107457,1.97435412 32.1953815,0.941796875 L32.7920612,0.941796875 C32.7243526,2.06745354 32.6904987,4.06059768 32.6904987,6.92128906 L32.093819,6.92128906 C31.9668653,6.14263934 31.8504928,5.53750216 31.744698,5.10585937 C31.6389032,4.67421659 31.5140672,4.30817208 31.3701862,4.00771484 C31.2263053,3.70725761 31.0316458,3.39622557 30.7862019,3.07460937 C30.2614597,2.39752266 29.5970783,1.88971523 28.7930378,1.55117187 C27.9889973,1.21262852 27.121493,1.04335937 26.1904987,1.04335937 C25.0648421,1.04335937 24.0788493,1.41575148 23.2324909,2.16054687 C22.3861325,2.90534227 21.7302146,3.96750612 21.2647175,5.34707031 C20.7992204,6.7266345 20.5664753,8.34315479 20.5664753,10.1966797 C20.5664753,12.0840589 20.820379,13.7048109 21.328194,15.0589844 C21.8360091,16.4131578 22.5342443,17.4414678 23.4229206,18.1439453 C24.3115969,18.8464228 25.3187483,19.1976562 26.444405,19.1976562 C27.3076906,19.1976562 28.1498045,19.0326188 28.9707722,18.7025391 C29.7917398,18.3724593 30.4307308,17.8773471 30.8877644,17.2171875 C31.2432349,16.7432268 31.4971386,16.2290718 31.6494831,15.674707 C31.8018276,15.1203423 31.9499381,14.2634173 32.093819,13.1039062 L32.6904987,13.1039062 C32.6904987,16.0915514 32.7243526,18.1735618 32.7920612,19.35 L32.1953815,19.35 C32.1530636,18.8083306 32.0832401,18.4168957 31.9859089,18.1756836 C31.8885777,17.9344715 31.7468148,17.8138672 31.5606159,17.8138672 C31.4251986,17.8138672 31.247466,17.8858066 31.0274128,18.0296875 C30.5111342,18.3936216 30.0350647,18.6919585 29.5991901,18.924707 C29.1633156,19.1574556 28.6660875,19.3478834 28.1074909,19.4959961 C27.5488944,19.6441088 26.9183668,19.7181641 26.2158894,19.7181641 C24.5654905,19.7181641 23.1203552,19.345772 21.8804401,18.6009766 C20.6405251,17.8561812 19.6799227,16.7749745 18.9986042,15.3573242 C18.3172857,13.9396739 17.9766315,12.2533301 17.9766315,10.2982422 C17.9766315,8.38547221 18.327865,6.6927808 19.0303425,5.22011719 C19.73282,3.74745357 20.7103492,2.60488687 21.9629597,1.79238281 C23.2155701,0.97987875 24.6416626,0.573632812 26.24128,0.573632812 C27.2738372,0.573632812 28.1561526,0.721743311 28.8882526,1.01796875 L28.8882526,1.01796875 Z M52.0370641,19.3246094 C51.6392757,19.5869805 51.1145413,19.7181641 50.4628453,19.7181641 C49.7519043,19.7181641 49.1679258,19.5108094 48.7108922,19.0960937 C48.2538587,18.6813781 47.906857,17.9492891 47.6698766,16.8998047 L47.0985875,14.3099609 C46.8954615,13.4043575 46.7029179,12.7082381 46.5209508,12.221582 C46.3389838,11.734926 46.0639214,11.3456069 45.6957555,11.0536133 C45.3275896,10.7616196 44.8176663,10.615625 44.1659703,10.615625 L41.6903844,10.615625 L41.6903844,16.5951172 C41.6903844,17.2468132 41.743281,17.7207667 41.8490758,18.0169922 C41.9548706,18.3132176 42.1495301,18.5163406 42.4330602,18.6263672 C42.7165903,18.7363938 43.1715011,18.8041014 43.7978063,18.8294922 L43.7978063,19.35 C43.0022294,19.2992185 41.90198,19.2738281 40.497025,19.2738281 C39.0074343,19.2738281 37.8987214,19.2992185 37.1708532,19.35 L37.1708532,18.8294922 C37.7971584,18.8041014 38.2520692,18.7363938 38.5355993,18.6263672 C38.8191293,18.5163406 39.0137888,18.3132176 39.1195836,18.0169922 C39.2253784,17.7207667 39.278275,17.2468132 39.278275,16.5951172 L39.278275,3.69667969 C39.278275,3.04498372 39.2253784,2.57103013 39.1195836,2.27480469 C39.0137888,1.97857925 38.8191293,1.77545628 38.5355993,1.66542969 C38.2520692,1.5554031 37.7971584,1.48769544 37.1708532,1.46230469 L37.1708532,0.941796875 C37.8987214,0.992578379 38.9566535,1.01796875 40.3446813,1.01796875 C40.6493703,1.01796875 41.588814,1.00527356 43.1630407,0.979882812 L44.2675328,0.9671875 C45.6217063,0.9671875 46.7685047,1.16396288 47.7079625,1.55751953 C48.6474204,1.95107619 49.354119,2.48850571 49.8280797,3.16982422 C50.3020404,3.85114273 50.5390172,4.62343318 50.5390172,5.48671875 C50.5390172,6.16380547 50.3782115,6.84722962 50.0565953,7.53701172 C49.7349792,8.22679381 49.1975496,8.84462618 48.4442907,9.39052734 C47.6910317,9.93642851 46.7050389,10.302473 45.4862828,10.4886719 L45.8036657,10.5394531 C46.5823154,10.6664069 47.2043795,10.8589505 47.6698766,11.1170898 C48.1353737,11.3752292 48.50565,11.7285785 48.7807164,12.1771484 C49.0557829,12.6257184 49.2779487,13.2223921 49.4472203,13.9671875 L50.0946813,16.6205078 C50.2047079,17.1537136 50.3168487,17.5705389 50.4311071,17.8709961 C50.5453655,18.1714533 50.6807808,18.3936191 50.8373571,18.5375 C50.9939334,18.6813809 51.1907087,18.7533203 51.4276891,18.7533203 C51.715451,18.7533203 51.9524278,18.6792651 52.1386266,18.5311523 C52.3248254,18.3830396 52.5618022,18.12702 52.8495641,17.7630859 L53.2431188,18.0550781 C52.8368668,18.6390654 52.4348525,19.0622383 52.0370641,19.3246094 L52.0370641,19.3246094 Z M42.4013219,1.64638672 C42.1304872,1.76910869 41.9442912,1.98704271 41.8427282,2.30019531 C41.7411652,2.61334792 41.6903844,3.07883806 41.6903844,3.69667969 L41.6903844,10.0951172 L43.4423375,10.0951172 C44.6103121,10.0951172 45.5243655,9.90892113 46.184525,9.53652344 C46.8446846,9.16412574 47.3017113,8.66478178 47.5556188,8.03847656 C47.8095263,7.41217135 47.9364782,6.65892367 47.9364782,5.77871094 C47.9364782,4.35682883 47.5979399,3.28196979 46.9208532,2.55410156 C46.2437664,1.82623334 45.143517,1.46230469 43.6200719,1.46230469 C43.0784025,1.46230469 42.6721566,1.52366475 42.4013219,1.64638672 L42.4013219,1.64638672 Z M68.6287467,0.941796875 L68.6287467,1.46230469 C68.2817397,1.53847694 67.9432014,1.75641096 67.6131217,2.11611328 C67.2830419,2.4758156 66.9275767,3.02805617 66.5467154,3.77285156 L62.4715201,11.8597656 L62.4715201,16.5951172 C62.4715201,17.2468132 62.5244167,17.7207667 62.6302115,18.0169922 C62.7360063,18.3132176 62.9306658,18.5163406 63.2141959,18.6263672 C63.4977259,18.7363938 63.9526368,18.8041014 64.578942,18.8294922 L64.578942,19.35 C63.7664379,19.2992185 62.6661885,19.2738281 61.2781607,19.2738281 C59.7885699,19.2738281 58.6756253,19.2992185 57.9392935,19.35 L57.9392935,18.8294922 C58.5655987,18.8041014 59.0205096,18.7363938 59.3040396,18.6263672 C59.5875697,18.5163406 59.7822292,18.3132176 59.888024,18.0169922 C59.9938188,17.7207667 60.0467154,17.2468132 60.0467154,16.5951172 L60.0467154,12.6722656 L54.7781607,2.94765625 C54.4565445,2.36366896 54.1793663,1.97434993 53.9466177,1.7796875 C53.7138692,1.58502507 53.4874717,1.48769531 53.2674185,1.48769531 L53.2674185,0.941796875 C53.9445052,0.992578379 54.7062164,1.01796875 55.5525748,1.01796875 C57.236828,1.01796875 58.4513341,0.992578379 59.1961295,0.941796875 L59.1961295,1.48769531 C57.9773734,1.48769531 57.3680045,1.82200187 57.3680045,2.490625 C57.3680045,2.74453252 57.4568708,3.04498524 57.634606,3.39199219 L61.9637076,11.6820312 L65.2771842,5.08046875 C65.7511449,4.12408376 65.9881217,3.37929954 65.9881217,2.84609375 C65.9881217,2.35520588 65.7976939,2.00608828 65.4168326,1.79873047 C65.0359713,1.59137266 64.4604562,1.47923186 63.6902701,1.46230469 L63.6902701,0.941796875 C64.6805094,0.992578379 65.6791973,1.01796875 66.6863638,1.01796875 C67.4650136,1.01796875 68.112468,0.992578379 68.6287467,0.941796875 L68.6287467,0.941796875 Z M78.3205269,0.783105469 C78.7056199,0.871973101 79.0251154,0.981998042 79.279023,1.11318359 C79.5329305,1.24436915 79.8122246,1.41152242 80.1169136,1.61464844 C80.5062384,1.86009237 80.8024594,1.9828125 81.0055855,1.9828125 C81.1663936,1.9828125 81.2891137,1.89183034 81.3737495,1.70986328 C81.4583854,1.52789623 81.526093,1.23802282 81.5768745,0.840234375 L82.1735542,0.840234375 C82.0889184,1.85586445 82.0466011,3.62472697 82.0466011,6.146875 L81.4499214,6.146875 C81.3822127,5.25819868 81.1896691,4.43724335 80.8722847,3.68398437 C80.5549003,2.9307254 80.0894101,2.31924063 79.4758003,1.84951172 C78.8621905,1.37978281 78.0983635,1.14492187 77.1842964,1.14492187 C76.5749183,1.14492187 76.0290254,1.27187373 75.5466011,1.52578125 C75.0641768,1.77968877 74.687553,2.13515396 74.4167183,2.5921875 C74.1458836,3.04922104 74.0104683,3.57395537 74.0104683,4.16640625 C74.0104683,4.8265658 74.1606946,5.39784915 74.4611519,5.88027344 C74.7616091,6.36269772 75.1466964,6.78163885 75.6164253,7.13710937 C76.0861542,7.4925799 76.7484197,7.93267967 77.6032417,8.45742187 L78.3776558,8.92714844 C79.4694581,9.61269874 80.3327307,10.2072566 80.9674995,10.7108398 C81.6022683,11.2144231 82.1100757,11.7984016 82.490937,12.462793 C82.8717983,13.1271843 83.0622261,13.8994748 83.0622261,14.7796875 C83.0622261,15.8460991 82.8167858,16.7495731 82.325898,17.4901367 C81.8350101,18.2307003 81.1727446,18.7871726 80.3390816,19.1595703 C79.5054185,19.531968 78.5723224,19.7181641 77.5397651,19.7181641 C76.7103339,19.7181641 76.0290256,19.6314136 75.4958198,19.4579102 C74.962614,19.2844067 74.4590383,19.0495458 73.9850776,18.7533203 C73.5957528,18.5078764 73.2995318,18.3851562 73.0964058,18.3851562 C72.9355977,18.3851562 72.8128775,18.4761384 72.7282417,18.6581055 C72.6436059,18.8400725 72.5758982,19.1299459 72.5251167,19.5277344 L71.928437,19.5277344 C71.9961457,18.579813 72.0299995,16.5020343 72.0299995,13.2943359 L72.6266792,13.2943359 C72.7451694,15.0547614 73.1768057,16.4787381 73.9216011,17.5663086 C74.6663965,18.6538791 75.8131949,19.1976562 77.3620308,19.1976562 C77.9544816,19.1976562 78.5067222,19.0749361 79.0187691,18.8294922 C79.5308159,18.5840483 79.9455253,18.2010768 80.2629097,17.6805664 C80.5802941,17.160056 80.7389839,16.5104857 80.7389839,15.7318359 C80.7389839,15.0632128 80.5760623,14.4644232 80.2502144,13.9354492 C79.9243664,13.4064752 79.4821507,12.9219423 78.9235542,12.4818359 C78.3649577,12.0417296 77.6201734,11.5423856 76.6891792,10.9837891 C75.656622,10.3659474 74.8272032,9.811591 74.200898,9.32070312 C73.5745927,8.82981525 73.0604377,8.24372085 72.6584175,7.56240234 C72.2563972,6.88108383 72.0553901,6.07917128 72.0553901,5.15664062 C72.0553901,4.17486488 72.2775559,3.34544609 72.7218941,2.66835937 C73.1662322,1.99127266 73.7586742,1.4855811 74.4992378,1.15126953 C75.2398014,0.816957964 76.0544091,0.649804687 76.9430855,0.649804687 C77.4762912,0.649804687 77.9354338,0.694237837 78.3205269,0.783105469 L78.3205269,0.783105469 Z M101.13926,4.26796875 C101.13926,5.1397179 101.164651,5.85064829 101.215432,6.40078125 L100.618752,6.40078125 C100.483335,5.0550714 100.31195,4.05849933 100.104592,3.41103516 C99.8972344,2.76357098 99.5333058,2.28961739 99.0127954,1.98916016 C98.4922849,1.68870292 97.6946041,1.53847656 96.6197289,1.53847656 L95.2105493,1.53847656 L95.2105493,16.3285156 C95.2105493,17.0479203 95.2782569,17.5747705 95.4136743,17.909082 C95.5490916,18.2433936 95.7945319,18.4740228 96.1500024,18.6009766 C96.5054729,18.7279303 97.0682928,18.8041014 97.8384789,18.8294922 L97.8384789,19.35 C96.9244119,19.2992185 95.6506616,19.2738281 94.0171899,19.2738281 C92.2821552,19.2738281 90.9999414,19.2992185 90.1705102,19.35 L90.1705102,18.8294922 C90.9406963,18.8041014 91.5035162,18.7279303 91.8589868,18.6009766 C92.2144573,18.4740228 92.4598975,18.2433936 92.5953149,17.909082 C92.7307322,17.5747705 92.7984399,17.0479203 92.7984399,16.3285156 L92.7984399,1.53847656 L91.3892602,1.53847656 C90.314385,1.53847656 89.5167042,1.68870292 88.9961938,1.98916016 C88.4756834,2.28961739 88.1117547,2.76357098 87.9043969,3.41103516 C87.6970391,4.05849933 87.5256541,5.0550714 87.3902368,6.40078125 L86.7935571,6.40078125 C86.8443386,5.85064829 86.8697289,5.1397179 86.8697289,4.26796875 C86.8697289,3.25233867 86.806253,2.1436258 86.6792993,0.941796875 C88.1181085,0.992578379 90.5640476,1.01796875 94.0171899,1.01796875 C97.4449414,1.01796875 99.8781853,0.992578379 101.316995,0.941796875 C101.198504,2.17748014 101.13926,3.28619301 101.13926,4.26796875 L101.13926,4.26796875 Z M119.013169,18.8294922 L119.013169,19.35 C118.302228,19.2992185 117.371248,19.2738281 116.220201,19.2738281 C114.739073,19.2738281 113.63036,19.2992185 112.894029,19.35 L112.894029,18.8294922 C113.554188,18.8041014 114.026026,18.7236986 114.309556,18.5882812 C114.593086,18.4528639 114.734849,18.2116554 114.734849,17.8646484 C114.734849,17.568423 114.633288,17.1621771 114.430162,16.6458984 L112.830552,12.3802734 L106.559068,12.3802734 L105.492662,15.1351562 C105.145655,16.015369 104.972154,16.7262994 104.972154,17.2679687 C104.972154,17.8181017 105.156234,18.2116525 105.5244,18.4486328 C105.892566,18.6856132 106.461733,18.812565 107.231919,18.8294922 L107.231919,19.35 C106.24168,19.2992185 105.242992,19.2738281 104.235826,19.2738281 C103.457176,19.2738281 102.809721,19.2992185 102.293443,19.35 L102.293443,18.8294922 C103.156728,18.6348298 103.838037,17.8815821 104.337388,16.5697266 L110.456529,0.81484375 L110.875474,0.81484375 L117.210435,17.1664062 C117.633614,18.2412814 118.23452,18.7956379 119.013169,18.8294922 L119.013169,18.8294922 Z M109.732896,4.10292969 L106.749497,11.8597656 L112.640122,11.8597656 L109.732896,4.10292969 Z M126.26745,1.66542969 C125.983919,1.77545628 125.78926,1.97857925 125.683465,2.27480469 C125.57767,2.57103013 125.524774,3.04498372 125.524774,3.69667969 L125.524774,16.5951172 C125.524774,17.2468132 125.57767,17.7186509 125.683465,18.0106445 C125.78926,18.3026382 125.983919,18.4994136 126.26745,18.6009766 C126.55098,18.7025396 127.00589,18.7533203 127.632196,18.7533203 L129.536492,18.7533203 C130.619831,18.7533203 131.442902,18.6009781 132.005731,18.2962891 C132.568559,17.9916 132.974805,17.5049513 133.224481,16.8363281 C133.474157,16.167705 133.6667,15.185944 133.802117,13.8910156 L134.398797,13.8910156 C134.348016,14.432685 134.322625,15.1436154 134.322625,16.0238281 C134.322625,17.0056039 134.38187,18.1143167 134.50036,19.35 C133.323922,19.2992185 131.339241,19.2738281 128.546258,19.2738281 C125.22007,19.2738281 122.706423,19.2992185 121.005242,19.35 L121.005242,18.8294922 C121.631548,18.8041014 122.086459,18.7363938 122.369989,18.6263672 C122.653519,18.5163406 122.848178,18.3132176 122.953973,18.0169922 C123.059768,17.7207667 123.112664,17.2468132 123.112664,16.5951172 L123.112664,3.69667969 C123.112664,3.04498372 123.059768,2.57103013 122.953973,2.27480469 C122.848178,1.97857925 122.653519,1.77545628 122.369989,1.66542969 C122.086459,1.5554031 121.631548,1.48769544 121.005242,1.46230469 L121.005242,0.941796875 C121.724647,0.992578379 122.83336,1.01796875 124.331414,1.01796875 C125.736369,1.01796875 126.836619,0.992578379 127.632196,0.941796875 L127.632196,1.46230469 C127.00589,1.48769544 126.55098,1.5554031 126.26745,1.66542969 L126.26745,1.66542969 Z M147.787573,0.21 L154.544573,0.21 C156.632584,0.21 158.193735,0.64499565 159.228073,1.515 C160.262412,2.38500435 160.779573,3.64165845 160.779573,5.285 C160.779573,6.40633894 160.475076,7.3536628 159.866073,8.127 C159.25707,8.9003372 158.391912,9.40299884 157.270573,9.635 L157.270573,9.664 C158.507913,9.8573343 159.48907,10.3599959 160.214073,11.172 C160.939077,11.9840041 161.301573,12.9893273 161.301573,14.188 C161.301573,15.8313415 160.716746,17.1024955 159.547073,18.0015 C158.377401,18.9005045 156.709918,19.35 154.544573,19.35 L147.787573,19.35 L147.787573,0.21 Z M154.573573,9.026 C157.686256,9.026 159.242573,7.77901247 159.242573,5.285 C159.242573,2.79098753 157.686256,1.544 154.573573,1.544 L149.237573,1.544 L149.237573,9.026 L154.573573,9.026 Z M154.834573,18.016 C156.458582,18.016 157.686236,17.6873366 158.517573,17.03 C159.348911,16.3726634 159.764573,15.4253395 159.764573,14.188 C159.764573,12.931327 159.348911,11.9791699 158.517573,11.3315 C157.686236,10.6838301 156.458582,10.36 154.834573,10.36 L149.237573,10.36 L149.237573,18.016 L154.834573,18.016 Z M180.180036,1.1235 C181.504376,1.92583734 182.524199,3.0664926 183.239536,4.5455 C183.954873,6.02450739 184.312536,7.76932328 184.312536,9.78 C184.312536,11.7906767 183.954873,13.5354926 183.239536,15.0145 C182.524199,16.4935074 181.504376,17.6341627 180.180036,18.4365 C178.855696,19.2388373 177.294545,19.64 175.496536,19.64 C173.698527,19.64 172.137376,19.2388373 170.813036,18.4365 C169.488696,17.6341627 168.468873,16.4935074 167.753536,15.0145 C167.038199,13.5354926 166.680536,11.7906767 166.680536,9.78 C166.680536,7.76932328 167.038199,6.02450739 167.753536,4.5455 C168.468873,3.0664926 169.488696,1.92583734 170.813036,1.1235 C172.137376,0.321162655 173.698527,-0.08 175.496536,-0.08 C177.294545,-0.08 178.855696,0.321162655 180.180036,1.1235 L180.180036,1.1235 Z M171.625036,2.2835 C170.532698,2.96983676 169.691706,3.9558269 169.102036,5.2415 C168.512367,6.52717309 168.217536,8.0399913 168.217536,9.78 C168.217536,11.5200087 168.512367,13.0328269 169.102036,14.3185 C169.691706,15.6041731 170.532698,16.5901632 171.625036,17.2765 C172.717375,17.9628368 174.007862,18.306 175.496536,18.306 C176.98521,18.306 178.280531,17.9628368 179.382536,17.2765 C180.484542,16.5901632 181.330367,15.6041731 181.920036,14.3185 C182.509706,13.0328269 182.804536,11.5200087 182.804536,9.78 C182.804536,8.0399913 182.509706,6.52717309 181.920036,5.2415 C181.330367,3.9558269 180.484542,2.96983676 179.382536,2.2835 C178.280531,1.59716323 176.98521,1.254 175.496536,1.254 C174.007862,1.254 172.717375,1.59716323 171.625036,2.2835 L171.625036,2.2835 Z M201.175499,19.35 L195.346499,10.679 L189.459499,19.35 L187.748499,19.35 L194.592499,9.519 L188.328499,0.21 L190.068499,0.21 L195.520499,8.33 L201.030499,0.21 L202.654499,0.21 L196.303499,9.49 L202.886499,19.35 L201.175499,19.35 Z"></path>
                </g>
            </g>
        </g>
    </g>
</svg>